{"title":"Taken.2008.1080p.BluRay.DTS.x264-LTT","uid":5514500,"size":4889713876,"categoryP":"video","categoryS":"hd___movies","magnet":"?xt=urn:btih:60a4eeb30ce0a1ff9ada19569ba12da6a265d2c5&amp;dn=Taken.2008.1080p.BluRay.DTS.x264-LTT&amp;tr=udp%3A%2F%2Ftracker.openbittorrent.com%3A80&amp;tr=udp%3A%2F%2Fopen.demonii.com%3A1337&amp;tr=udp%3A%2F%2Ftracker.coppersurfer.tk%3A6969&amp;tr=udp%3A%2F%2Fexodus.desync.com%3A6969","seeders":1,"leechers":0,"uploader":"Ltt_01","files":2,"time":1272203943,"description":"Taken 1080p BluRay.mkv\n**********************\n\nTiTLE......  Taken\nYEAR.......  2008\nGENRE......  Action | Crime | Drama | Thriller\niMDB RATE..  User Rating: 7.9/10 (100,860 votes)\niMDB URL... &lt;a href=&quot; http://www.imdb.com/title/tt0936501/&quot; rel=&quot;nofollow&quot; target=&quot;_NEW&quot;&gt; http://www.imdb.com/title/tt0936501/&lt;/a&gt;\nAwards 2009: 1 win &amp; 2 nominations\n**********************************\n\nVideo\nDuration                         : 1h 33mn\nBit rate                         : 5 442 Kbps\nWidth                            : 1 920 pixels\nHeight                           : 816 pixels\nDisplay aspect ratio             : 2.35:1\nFrame rate                       : 25.000 fps\nResolution                       : 24 bits\nColorimetry                      : 4:2:0\nStream size                      : 3.47 GiB (76%)\n\nAudio\nID                               : 2\nFormat                           : DTS\nFormat/Info                      : Digital Theater Systems\nBit rate                         : 1 510 Kbps\nChannel(s)                       : 6 channels\nChannel positions                : Front: L C R, Surround: L R, LFE\nSampling rate                    : 48.0 KHz\nResolution                       : 24 bits\nStream size                      : 1 013 MiB (22%)\nLanguage                         : English\n\nSubtitles: English, Dutch, Finnish, Norwegian\n*********************************************\n\n","torrent":{"xt":"urn:btih:60a4eeb30ce0a1ff9ada19569ba12da6a265d2c5","amp;dn":"Taken.2008.1080p.BluRay.DTS.x264-LTT","amp;tr":["udp%3A%2F%2Ftracker.openbittorrent.com%3A80","udp%3A%2F%2Fopen.demonii.com%3A1337","udp%3A%2F%2Ftracker.coppersurfer.tk%3A6969","udp%3A%2F%2Fexodus.desync.com%3A6969"],"infoHash":"60a4eeb30ce0a1ff9ada19569ba12da6a265d2c5","infoHashBuffer":{"type":"Buffer","data":[96,164,238,179,12,224,161,255,154,218,25,86,155,161,45,166,162,101,210,197]},"announce":[],"urlList":[]}}